<svg width="16" height="21" viewBox="0 0 16 21" fill="none" xmlns="http://www.w3.org/2000/svg">
<g id="Group">
<path id="Vector" d="M0.812309 16.9094C0.157054 13.3506 2.69374 11.2997 4.18616 10.3656C1.21605 7.37721 2.57411 3.38154 4.18616 2.0461C6.06189 0.492238 9.41939 -0.213622 11.6116 2.45579C14.3186 5.75211 12.74 9.04757 11.6116 10.3656C12.3396 11.0065 14.8423 12.6724 15.2093 16.0968C15.6724 20.4173 1.63138 21.3579 0.812309 16.9094Z" fill="#235789"/>
<path id="Vector_2" d="M0.812309 16.9094C0.157054 13.3506 2.69374 11.2997 4.18616 10.3656C1.21605 7.37721 2.57411 3.38154 4.18616 2.0461C6.06189 0.492238 9.41939 -0.213622 11.6116 2.45579C14.3186 5.75211 12.74 9.04757 11.6116 10.3656C12.3396 11.0065 14.8423 12.6724 15.2093 16.0968C15.6724 20.4173 1.63138 21.3579 0.812309 16.9094Z" stroke="black"/>
</g>
</svg>
